<svg width="225" height="96" viewBox="0 0 225 96" fill="none" xmlns="http://www.w3.org/2000/svg">
<path d="M83.68 78V36H100.78C103.7 36 106.44 36.56 109 37.68C111.6 38.76 113.84 40.24 115.72 42.12C117.64 44 119.14 46.24 120.22 48.84C121.34 51.4 121.9 54.16 121.9 57.12C121.9 60 121.34 62.72 120.22 65.28C119.14 67.84 117.64 70.06 115.72 71.94C113.84 73.82 111.6 75.3 109 76.38C106.44 77.46 103.7 78 100.78 78H83.68ZM100.78 44.82H94V69.18H100.78C102.22 69.18 103.58 68.88 104.86 68.28C106.14 67.64 107.24 66.78 108.16 65.7C109.12 64.62 109.86 63.34 110.38 61.86C110.94 60.38 111.22 58.8 111.22 57.12C111.22 55.4 110.94 53.8 110.38 52.32C109.86 50.8 109.12 49.5 108.16 48.42C107.24 47.3 106.14 46.42 104.86 45.78C103.58 45.14 102.22 44.82 100.78 44.82Z" fill="#487CB9"/>
<path d="M128.366 78V47.04H138.086V54.06C139.086 51.5 140.266 49.6 141.626 48.36C143.026 47.08 144.646 46.44 146.486 46.44C147.166 46.48 147.726 46.56 148.166 46.68C148.606 46.76 149.126 46.94 149.726 47.22V55.56C149.126 55.28 148.426 55.06 147.626 54.9C146.826 54.7 146.006 54.6 145.166 54.6C143.726 54.6 142.366 54.96 141.086 55.68C139.846 56.36 138.846 57.28 138.086 58.44V78H128.366ZM159.769 42.24C158.249 42.24 156.949 41.72 155.869 40.68C154.829 39.6 154.309 38.32 154.309 36.84C154.309 35.36 154.849 34.08 155.929 33C157.009 31.92 158.289 31.38 159.769 31.38C161.249 31.38 162.529 31.92 163.609 33C164.729 34.08 165.289 35.36 165.289 36.84C165.289 38.32 164.749 39.6 163.669 40.68C162.629 41.72 161.329 42.24 159.769 42.24ZM164.629 47.04V78H154.909V47.04H164.629ZM177.054 42.24C175.534 42.24 174.234 41.72 173.154 40.68C172.114 39.6 171.594 38.32 171.594 36.84C171.594 35.36 172.134 34.08 173.214 33C174.294 31.92 175.574 31.38 177.054 31.38C178.534 31.38 179.814 31.92 180.894 33C182.014 34.08 182.574 35.36 182.574 36.84C182.574 38.32 182.034 39.6 180.954 40.68C179.914 41.72 178.614 42.24 177.054 42.24ZM181.914 47.04V78H172.194V47.04H181.914ZM189.479 90.9V47.04H199.079V51.36C200.079 50 201.399 48.92 203.039 48.12C204.679 47.28 206.419 46.86 208.259 46.86C210.139 46.86 211.919 47.28 213.599 48.12C215.279 48.92 216.719 50.04 217.919 51.48C219.159 52.88 220.139 54.54 220.859 56.46C221.579 58.38 221.939 60.42 221.939 62.58C221.939 64.74 221.559 66.78 220.799 68.7C220.079 70.58 219.059 72.22 217.739 73.62C216.459 75.02 214.939 76.14 213.179 76.98C211.419 77.78 209.539 78.18 207.539 78.18C205.859 78.18 204.299 77.88 202.859 77.28C201.419 76.64 200.199 75.74 199.199 74.58V90.9H189.479ZM205.019 54.9C203.819 54.9 202.739 55.12 201.779 55.56C200.819 55.96 199.959 56.58 199.199 57.42V67.74C199.959 68.5 200.839 69.1 201.839 69.54C202.839 69.98 203.899 70.2 205.019 70.2C207.139 70.2 208.899 69.48 210.299 68.04C211.699 66.56 212.399 64.72 212.399 62.52C212.399 60.36 211.679 58.56 210.239 57.12C208.839 55.64 207.099 54.9 205.019 54.9Z" fill="#6BA0DE"/>
<g filter="url(#filter0_d)">
<rect x="4" y="61.8754" width="82.6943" height="39.1378" rx="19.5689" transform="rotate(-48.4383 4 61.8754)" fill="#6BA0DE"/>
<rect x="4" y="61.8754" width="82.6943" height="39.1378" rx="19.5689" transform="rotate(-48.4383 4 61.8754)" fill="url(#paint0_linear)"/>
<rect x="7.52917" y="61.6634" width="77.6943" height="34.1378" rx="17.0689" transform="rotate(-48.4383 7.52917 61.6634)" stroke="#6BA0DE" stroke-width="5"/>
</g>
<defs>
<filter id="filter0_d" x="0" y="0" width="92.1461" height="95.8404" filterUnits="userSpaceOnUse" color-interpolation-filters="sRGB">
<feFlood flood-opacity="0" result="BackgroundImageFix"/>
<feColorMatrix in="SourceAlpha" type="matrix" values="0 0 0 0 0 0 0 0 0 0 0 0 0 0 0 0 0 0 127 0" result="hardAlpha"/>
<feOffset dy="4"/>
<feGaussianBlur stdDeviation="2"/>
<feColorMatrix type="matrix" values="0 0 0 0 0 0 0 0 0 0 0 0 0 0 0 0 0 0 0.25 0"/>
<feBlend mode="normal" in2="BackgroundImageFix" result="effect1_dropShadow"/>
<feBlend mode="normal" in="SourceGraphic" in2="effect1_dropShadow" result="shape"/>
</filter>
<linearGradient id="paint0_linear" x1="95.3608" y1="78.4328" x2="45.239" y2="81.4426" gradientUnits="userSpaceOnUse">
<stop offset="0.9999" stop-color="white"/>
<stop offset="1" stop-color="white" stop-opacity="0"/>
</linearGradient>
</defs>
</svg>
